<svg width="957" height="102" viewBox="0 0 957 102" fill="none" xmlns="http://www.w3.org/2000/svg">
<path d="M0.88 51.048C0.88 44.136 2.176 37.608 4.768 31.464C7.456 25.32 11.056 19.992 15.568 15.48C20.176 10.872 25.552 7.272 31.696 4.68C37.84 1.992 44.368 0.647996 51.28 0.647996C58.192 0.647996 64.72 1.992 70.864 4.68C77.008 7.272 82.336 10.872 86.848 15.48C91.456 19.992 95.056 25.32 97.648 31.464C100.336 37.608 101.68 44.136 101.68 51.048C101.68 57.96 100.336 64.488 97.648 70.632C95.056 76.776 91.456 82.152 86.848 86.76C82.336 91.272 77.008 94.872 70.864 97.56C64.72 100.152 58.192 101.448 51.28 101.448C44.368 101.448 37.84 100.152 31.696 97.56C25.552 94.872 20.176 91.272 15.568 86.76C11.056 82.152 7.456 76.776 4.768 70.632C2.176 64.488 0.88 57.96 0.88 51.048ZM14.416 51.048C14.416 56.136 15.376 60.936 17.296 65.448C19.216 69.864 21.856 73.752 25.216 77.112C28.576 80.472 32.464 83.112 36.88 85.032C41.392 86.952 46.192 87.912 51.28 87.912C56.368 87.912 61.12 86.952 65.536 85.032C70.048 83.112 73.984 80.472 77.344 77.112C80.704 73.752 83.344 69.864 85.264 65.448C87.184 60.936 88.144 56.136 88.144 51.048C88.144 45.96 87.184 41.208 85.264 36.792C83.344 32.28 80.704 28.344 77.344 24.984C73.984 21.624 70.048 18.984 65.536 17.064C61.12 15.144 56.368 14.184 51.28 14.184C46.192 14.184 41.392 15.144 36.88 17.064C32.464 18.984 28.576 21.624 25.216 24.984C21.856 28.344 19.216 32.28 17.296 36.792C15.376 41.208 14.416 45.96 14.416 51.048ZM31.12 51.048C31.12 53.832 31.648 56.472 32.704 58.968C33.76 61.368 35.2 63.48 37.024 65.304C38.848 67.128 40.96 68.568 43.36 69.624C45.856 70.68 48.496 71.208 51.28 71.208C54.064 71.208 56.656 70.68 59.056 69.624C61.552 68.568 63.712 67.128 65.536 65.304C67.36 63.48 68.8 61.368 69.856 58.968C70.912 56.472 71.44 53.832 71.44 51.048C71.44 48.264 70.912 45.672 69.856 43.272C68.8 40.776 67.36 38.616 65.536 36.792C63.712 34.968 61.552 33.528 59.056 32.472C56.656 31.416 54.064 30.888 51.28 30.888C48.496 30.888 45.856 31.416 43.36 32.472C40.96 33.528 38.848 34.968 37.024 36.792C35.2 38.616 33.76 40.776 32.704 43.272C31.648 45.672 31.12 48.264 31.12 51.048ZM51.28 84.168C46.672 84.168 42.352 83.304 38.32 81.576C34.384 79.848 30.88 77.496 27.808 74.52C24.832 71.448 22.48 67.944 20.752 64.008C19.024 59.976 18.16 55.656 18.16 51.048C18.16 46.44 19.024 42.168 20.752 38.232C22.48 34.2 24.832 30.696 27.808 27.72C30.88 24.648 34.384 22.248 38.32 20.52C42.352 18.792 46.672 17.928 51.28 17.928C55.888 17.928 60.16 18.792 64.096 20.52C68.128 22.248 71.632 24.648 74.608 27.72C77.68 30.696 80.08 34.2 81.808 38.232C83.536 42.168 84.4 46.44 84.4 51.048C84.4 55.656 83.536 59.976 81.808 64.008C80.08 67.944 77.68 71.448 74.608 74.52C71.632 77.496 68.128 79.848 64.096 81.576C60.16 83.304 55.888 84.168 51.28 84.168ZM113.954 2.95199H145.922V73.8H172.418V99H113.954V2.95199ZM164.354 87.48V84.024H132.098V14.472H128.354V87.48H164.354ZM181.836 2.95199H214.38V99H181.836V2.95199ZM199.98 87.48V14.472H196.236V87.48H199.98ZM254.398 2.95199L270.67 44.712L287.086 2.95199H320.638L283.198 99H258.286L220.846 2.95199H254.398ZM272.254 87.48L300.766 14.472H296.734L270.67 80.856L244.75 14.472H240.718L269.23 87.48H272.254ZM327.164 2.95199H359.708V99H327.164V2.95199ZM345.308 87.48V14.472H341.564V87.48H345.308ZM402.605 2.95199H425.645L462.077 99H431.837L428.669 90.36H399.581L396.413 99H366.173L402.605 2.95199ZM420.605 69.192L414.125 52.344L407.645 69.192H420.605ZM387.629 87.48L390.365 80.28H437.885L440.621 87.48H444.653L416.861 14.472H411.389L383.597 87.48H387.629ZM414.125 17.928L436.589 76.824H391.661L414.125 17.928Z" fill="black"/>
<path d="M501.702 2.95199H532.806V25.128L550.95 2.95199H588.534L554.694 46.872L590.262 99H553.254L532.806 69.336V99H501.702V2.95199ZM519.846 87.48V68.04L534.822 49.464L561.03 87.48H565.494L537.414 46.44L563.19 14.472H558.582L519.846 62.28V14.472H516.102V87.48H519.846ZM597.428 2.95199H654.02V28.152H628.1V38.808H653.588V62.712H628.1V73.8H655.028V99H597.428V2.95199ZM644.372 87.48V84.024H615.572V52.488H642.932V49.032H615.572V17.928H644.372V14.472H611.828V87.48H644.372ZM667.983 2.95199H699.951V73.8H726.447V99H667.983V2.95199ZM718.383 87.48V84.024H686.127V14.472H682.383V87.48H718.383ZM735.865 2.95199H767.833V73.8H794.329V99H735.865V2.95199ZM786.265 87.48V84.024H754.009V14.472H750.265V87.48H786.265ZM803.748 2.95199H860.34V28.152H834.42V38.808H859.908V62.712H834.42V73.8H861.348V99H803.748V2.95199ZM850.692 87.48V84.024H821.892V52.488H849.252V49.032H821.892V17.928H850.692V14.472H818.148V87.48H850.692ZM896.19 57.672L866.382 2.95199H900.51L911.598 23.256L922.542 2.95199H956.67L926.862 57.672V99H896.19V57.672ZM913.47 87.48V53.064L934.494 14.472H930.03L911.598 48.6L893.022 14.472H888.702L909.582 53.064V87.48H913.47Z" fill="white"/>
</svg>
